<mxfile host="Electron" modified="2023-09-30T08:19:13.594Z" agent="Mozilla/5.0 (Macintosh; Intel Mac OS X 10_15_7) AppleWebKit/537.36 (KHTML, like Gecko) draw.io/22.0.0 Chrome/114.0.5735.289 Electron/25.8.3 Safari/537.36" etag="P2DNnCw8gU-rS8J6qqE1" version="22.0.0" type="device">
  <diagram name="Page-1" id="5wcF2D67hh1iBqyEtvuE">
    <mxGraphModel dx="3310" dy="2042" grid="1" gridSize="10" guides="1" tooltips="1" connect="1" arrows="1" fold="1" page="1" pageScale="1" pageWidth="1600" pageHeight="900" math="0" shadow="0">
      <root>
        <mxCell id="0" />
        <mxCell id="1" parent="0" />
        <UserObject label="&lt;i&gt;&lt;font color=&quot;#000000&quot;&gt;verifiableCredential&lt;/font&gt;&lt;/i&gt;" link="https://www.w3.org/2018/credentials#verifiableCredential" id="1oUjKqBKF74gJ-cnWfdO-3">
          <mxCell style="rounded=1;whiteSpace=wrap;html=1;fontSize=16;fillColor=none;strokeWidth=2;" parent="1" vertex="1">
            <mxGeometry x="-1451" y="-384.80545548121466" width="171" height="27.21049922799794" as="geometry" />
          </mxCell>
        </UserObject>
        <UserObject label="&lt;i&gt;&lt;font color=&quot;#000000&quot;&gt;VerifiableCredential&lt;/font&gt;&lt;/i&gt;" link="https://www.w3.org/2018/credentials#VerifiableCredential" id="1oUjKqBKF74gJ-cnWfdO-5">
          <mxCell style="ellipse;whiteSpace=wrap;html=1;fontSize=16;fillColor=none;strokeWidth=2;strokeColor=#336600;" parent="1" vertex="1">
            <mxGeometry x="-1281" y="-889" width="218" height="39.215131240349976" as="geometry" />
          </mxCell>
        </UserObject>
        <UserObject label="&lt;i&gt;&lt;font color=&quot;#000000&quot;&gt;JsonSchemaCredential&lt;/font&gt;&lt;/i&gt;" link="https://www.w3.org/2018/credentials#JsonSchemaCredential" id="1oUjKqBKF74gJ-cnWfdO-6">
          <mxCell style="ellipse;whiteSpace=wrap;html=1;fontSize=16;fillColor=none;strokeWidth=2;strokeColor=#336600;" parent="1" vertex="1">
            <mxGeometry x="-1561" y="-768.9536798764797" width="218" height="39.215131240349976" as="geometry" />
          </mxCell>
        </UserObject>
        <UserObject label="&lt;i&gt;&lt;font color=&quot;#000000&quot;&gt;VerifiablePresentation&lt;/font&gt;&lt;/i&gt;" link="https://www.w3.org/2018/credentials#VerifiablePresentation" id="1oUjKqBKF74gJ-cnWfdO-7">
          <mxCell style="ellipse;whiteSpace=wrap;html=1;fontSize=16;fillColor=none;strokeWidth=2;strokeColor=#336600;" parent="1" vertex="1">
            <mxGeometry x="-1285" y="-150.71513124034982" width="218" height="39.215131240349976" as="geometry" />
          </mxCell>
        </UserObject>
        <mxCell id="1oUjKqBKF74gJ-cnWfdO-9" value="" style="endArrow=classic;html=1;rounded=0;fontSize=12;startSize=8;endSize=8;curved=1;exitX=0.5;exitY=0;exitDx=0;exitDy=0;entryX=0;entryY=0.5;entryDx=0;entryDy=0;strokeWidth=2;" parent="1" source="1oUjKqBKF74gJ-cnWfdO-6" target="1oUjKqBKF74gJ-cnWfdO-5" edge="1">
          <mxGeometry width="50" height="50" relative="1" as="geometry">
            <mxPoint x="-1535" y="-563.2743180648482" as="sourcePoint" />
            <mxPoint x="-1485" y="-603.2897581060216" as="targetPoint" />
            <Array as="points">
              <mxPoint x="-1411" y="-832.9783839423571" />
            </Array>
          </mxGeometry>
        </mxCell>
        <mxCell id="1oUjKqBKF74gJ-cnWfdO-12" value="" style="endArrow=classic;html=1;rounded=0;fontSize=12;startSize=8;endSize=8;curved=1;exitX=0.5;exitY=0;exitDx=0;exitDy=0;strokeColor=#000099;dashed=1;strokeWidth=2;entryX=0.5;entryY=1;entryDx=0;entryDy=0;" parent="1" source="1oUjKqBKF74gJ-cnWfdO-3" target="1oUjKqBKF74gJ-cnWfdO-15" edge="1">
          <mxGeometry width="50" height="50" relative="1" as="geometry">
            <mxPoint x="-1314" y="-492.0468347915595" as="sourcePoint" />
            <mxPoint x="-1291" y="-552.8703036541431" as="targetPoint" />
          </mxGeometry>
        </mxCell>
        <mxCell id="1oUjKqBKF74gJ-cnWfdO-13" style="edgeStyle=none;curved=1;rounded=0;orthogonalLoop=1;jettySize=auto;html=1;entryX=0.5;entryY=0;entryDx=0;entryDy=0;fontSize=12;startSize=8;endSize=8;" parent="1" source="1oUjKqBKF74gJ-cnWfdO-3" target="1oUjKqBKF74gJ-cnWfdO-3" edge="1">
          <mxGeometry relative="1" as="geometry" />
        </mxCell>
        <mxCell id="1oUjKqBKF74gJ-cnWfdO-14" value="" style="endArrow=classic;html=1;rounded=0;fontSize=12;startSize=8;endSize=8;curved=1;exitX=0;exitY=0.5;exitDx=0;exitDy=0;entryX=0.5;entryY=1;entryDx=0;entryDy=0;dashed=1;strokeWidth=2;strokeColor=#CC0000;endFill=1;startArrow=none;startFill=0;dashPattern=5 2 2 2;" parent="1" source="1oUjKqBKF74gJ-cnWfdO-7" target="1oUjKqBKF74gJ-cnWfdO-3" edge="1">
          <mxGeometry width="50" height="50" relative="1" as="geometry">
            <mxPoint x="-987" y="-436.0252187339167" as="sourcePoint" />
            <mxPoint x="-937" y="-476.04065877509004" as="targetPoint" />
            <Array as="points">
              <mxPoint x="-1361" y="-216.74060730828626" />
            </Array>
          </mxGeometry>
        </mxCell>
        <UserObject label="&lt;i&gt;&lt;font color=&quot;#000000&quot;&gt;VerifiableCredentialGraph&lt;/font&gt;&lt;/i&gt;" link="https://www.w3.org/2018/credentials#VerifiableCredentialGraph" id="1oUjKqBKF74gJ-cnWfdO-15">
          <mxCell style="ellipse;whiteSpace=wrap;html=1;fontSize=16;fillColor=none;strokeWidth=2;strokeColor=#336600;" parent="1" vertex="1">
            <mxGeometry x="-1474.5" y="-592.8857436953165" width="218" height="39.215131240349976" as="geometry" />
          </mxCell>
        </UserObject>
        <mxCell id="1oUjKqBKF74gJ-cnWfdO-10" style="edgeStyle=none;curved=1;rounded=0;orthogonalLoop=1;jettySize=auto;html=1;entryX=0;entryY=1;entryDx=0;entryDy=0;fontSize=12;startSize=8;endSize=8;dashed=1;dashPattern=1 4;strokeWidth=2;exitX=0.5;exitY=0;exitDx=0;exitDy=0;endArrow=classicThin;endFill=0;" parent="1" source="1oUjKqBKF74gJ-cnWfdO-15" target="1oUjKqBKF74gJ-cnWfdO-5" edge="1">
          <mxGeometry relative="1" as="geometry">
            <mxPoint x="-1251" y="-640.9042717447246" as="sourcePoint" />
          </mxGeometry>
        </mxCell>
        <UserObject label="&lt;i&gt;&lt;font color=&quot;#000000&quot;&gt;credentialSchema&lt;/font&gt;&lt;/i&gt;" link="https://www.w3.org/2018/credentials#credentialSchema" id="lZdwYr-LXM3OhQDUA7XR-1">
          <mxCell style="rounded=1;whiteSpace=wrap;html=1;fontSize=16;fillColor=none;strokeWidth=2;" parent="1" vertex="1">
            <mxGeometry x="-881" y="-824.9752959341225" width="171" height="27.21049922799794" as="geometry" />
          </mxCell>
        </UserObject>
        <UserObject label="&lt;i&gt;&lt;font color=&quot;#000000&quot;&gt;credentialStatus&lt;/font&gt;&lt;/i&gt;" link="https://www.w3.org/2018/credentials#credentialStatus" id="lZdwYr-LXM3OhQDUA7XR-2">
          <mxCell style="rounded=1;whiteSpace=wrap;html=1;fontSize=16;fillColor=none;strokeWidth=2;" parent="1" vertex="1">
            <mxGeometry x="-881" y="-768" width="171" height="27.21049922799794" as="geometry" />
          </mxCell>
        </UserObject>
        <UserObject label="&lt;i&gt;&lt;font color=&quot;#000000&quot;&gt;credentialSubject&lt;/font&gt;&lt;/i&gt;" link="https://www.w3.org/2018/credentials#credentialSubject" id="lZdwYr-LXM3OhQDUA7XR-3">
          <mxCell style="rounded=1;whiteSpace=wrap;html=1;fontSize=16;fillColor=none;strokeWidth=2;" parent="1" vertex="1">
            <mxGeometry x="-881" y="-712" width="171" height="27.21049922799794" as="geometry" />
          </mxCell>
        </UserObject>
        <UserObject label="&lt;i&gt;&lt;font color=&quot;#000000&quot;&gt;issuer&lt;/font&gt;&lt;/i&gt;" link="https://www.w3.org/2018/credentials#issuer" id="lZdwYr-LXM3OhQDUA7XR-4">
          <mxCell style="rounded=1;whiteSpace=wrap;html=1;fontSize=16;fillColor=none;strokeWidth=2;" parent="1" vertex="1">
            <mxGeometry x="-881" y="-655" width="171" height="27.21049922799794" as="geometry" />
          </mxCell>
        </UserObject>
        <UserObject label="&lt;i&gt;&lt;font color=&quot;#000000&quot;&gt;evidence&lt;/font&gt;&lt;/i&gt;" link="https://www.w3.org/2018/credentials#evidence" id="lZdwYr-LXM3OhQDUA7XR-5">
          <mxCell style="rounded=1;whiteSpace=wrap;html=1;fontSize=16;fillColor=none;strokeWidth=2;dashed=1;dashPattern=1 2;" parent="1" vertex="1">
            <mxGeometry x="-881" y="-542" width="171" height="27.21049922799794" as="geometry" />
          </mxCell>
        </UserObject>
        <UserObject label="&lt;i&gt;&lt;font color=&quot;#000000&quot;&gt;refreshService&lt;/font&gt;&lt;/i&gt;" link="https://www.w3.org/2018/credentials#refreshService" id="lZdwYr-LXM3OhQDUA7XR-6">
          <mxCell style="rounded=1;whiteSpace=wrap;html=1;fontSize=16;fillColor=none;strokeWidth=2;dashed=1;dashPattern=1 2;" parent="1" vertex="1">
            <mxGeometry x="-881" y="-486" width="171" height="27.21049922799794" as="geometry" />
          </mxCell>
        </UserObject>
        <UserObject label="&lt;i&gt;&lt;font color=&quot;#000000&quot;&gt;renderMethod&lt;/font&gt;&lt;/i&gt;" link="https://www.w3.org/2018/credentials#renderMethod" id="lZdwYr-LXM3OhQDUA7XR-7">
          <mxCell style="rounded=1;whiteSpace=wrap;html=1;fontSize=16;fillColor=none;strokeWidth=2;dashed=1;dashPattern=1 2;" parent="1" vertex="1">
            <mxGeometry x="-881" y="-429" width="171" height="27.21049922799794" as="geometry" />
          </mxCell>
        </UserObject>
        <UserObject label="&lt;i&gt;&lt;font color=&quot;#000000&quot;&gt;confidenceMethod&lt;/font&gt;&lt;/i&gt;" link="https://www.w3.org/2018/credentials#confidenceMethod" id="lZdwYr-LXM3OhQDUA7XR-8">
          <mxCell style="rounded=1;whiteSpace=wrap;html=1;fontSize=16;fillColor=none;strokeWidth=2;dashed=1;dashPattern=1 2;" parent="1" vertex="1">
            <mxGeometry x="-881" y="-372" width="171" height="27.21049922799794" as="geometry" />
          </mxCell>
        </UserObject>
        <UserObject label="&lt;i&gt;&lt;font color=&quot;#000000&quot;&gt;termsOfUse&lt;/font&gt;&lt;/i&gt;" link="https://www.w3.org/2018/credentials#termsOfUse" id="lZdwYr-LXM3OhQDUA7XR-9">
          <mxCell style="rounded=1;whiteSpace=wrap;html=1;fontSize=16;fillColor=none;strokeWidth=2;dashed=1;dashPattern=1 2;" parent="1" vertex="1">
            <mxGeometry x="-881" y="-316" width="171" height="27.21049922799794" as="geometry" />
          </mxCell>
        </UserObject>
        <UserObject label="&lt;i&gt;&lt;font color=&quot;#000000&quot;&gt;validFrom&lt;/font&gt;&lt;/i&gt;" link="https://www.w3.org/2018/credentials#validFrom" id="lZdwYr-LXM3OhQDUA7XR-10">
          <mxCell style="rounded=1;whiteSpace=wrap;html=1;fontSize=16;fillColor=none;strokeWidth=2;" parent="1" vertex="1">
            <mxGeometry x="-881" y="-259" width="171" height="27.21049922799794" as="geometry" />
          </mxCell>
        </UserObject>
        <UserObject label="&lt;i&gt;&lt;font color=&quot;#000000&quot;&gt;validUntil&lt;/font&gt;&lt;/i&gt;" link="https://www.w3.org/2018/credentials#validUntil" id="lZdwYr-LXM3OhQDUA7XR-11">
          <mxCell style="rounded=1;whiteSpace=wrap;html=1;fontSize=16;fillColor=none;strokeWidth=2;" parent="1" vertex="1">
            <mxGeometry x="-881" y="-202.75913535769416" width="171" height="27.21049922799794" as="geometry" />
          </mxCell>
        </UserObject>
        <UserObject label="&lt;i&gt;&lt;font color=&quot;#000000&quot;&gt;holder&lt;/font&gt;&lt;/i&gt;" link="https://www.w3.org/2018/credentials#holder" id="lZdwYr-LXM3OhQDUA7XR-12">
          <mxCell style="rounded=1;whiteSpace=wrap;html=1;fontSize=16;fillColor=none;strokeWidth=2;" parent="1" vertex="1">
            <mxGeometry x="-881" y="-144.71281523417395" width="171" height="27.21049922799794" as="geometry" />
          </mxCell>
        </UserObject>
        <mxCell id="lZdwYr-LXM3OhQDUA7XR-13" value="" style="endArrow=none;html=1;rounded=0;fontSize=12;startSize=8;endSize=8;curved=1;exitX=0;exitY=0.5;exitDx=0;exitDy=0;entryX=1;entryY=0.5;entryDx=0;entryDy=0;dashed=1;strokeWidth=2;strokeColor=#CC0000;endFill=0;startArrow=classic;startFill=1;dashPattern=5 2 2 2;" parent="1" source="lZdwYr-LXM3OhQDUA7XR-12" target="1oUjKqBKF74gJ-cnWfdO-7" edge="1">
          <mxGeometry width="50" height="50" relative="1" as="geometry">
            <mxPoint x="-1039" y="-161.51930005146687" as="sourcePoint" />
            <mxPoint x="-1105" y="-336.7869274318065" as="targetPoint" />
          </mxGeometry>
        </mxCell>
        <mxCell id="lZdwYr-LXM3OhQDUA7XR-14" value="" style="endArrow=none;html=1;rounded=0;fontSize=12;startSize=8;endSize=8;curved=1;exitX=0;exitY=0.5;exitDx=0;exitDy=0;entryX=0.5;entryY=1;entryDx=0;entryDy=0;dashed=1;strokeWidth=2;strokeColor=#CC0000;endFill=0;startArrow=classic;startFill=1;dashPattern=5 2 2 2;" parent="1" source="lZdwYr-LXM3OhQDUA7XR-1" target="1oUjKqBKF74gJ-cnWfdO-5" edge="1">
          <mxGeometry width="50" height="50" relative="1" as="geometry">
            <mxPoint x="-1029" y="-601.6891405043747" as="sourcePoint" />
            <mxPoint x="-1095" y="-776.9567678847144" as="targetPoint" />
            <Array as="points">
              <mxPoint x="-990" y="-811" />
              <mxPoint x="-1111" y="-808.9691199176531" />
            </Array>
          </mxGeometry>
        </mxCell>
        <mxCell id="lZdwYr-LXM3OhQDUA7XR-15" value="" style="endArrow=none;html=1;rounded=0;fontSize=12;startSize=8;endSize=8;curved=1;exitX=0;exitY=0.5;exitDx=0;exitDy=0;entryX=0.5;entryY=1;entryDx=0;entryDy=0;dashed=1;strokeWidth=2;strokeColor=#CC0000;endFill=0;startArrow=classic;startFill=1;dashPattern=5 2 2 2;" parent="1" source="lZdwYr-LXM3OhQDUA7XR-2" target="1oUjKqBKF74gJ-cnWfdO-5" edge="1">
          <mxGeometry width="50" height="50" relative="1" as="geometry">
            <mxPoint x="-988" y="-754.5481214616573" as="sourcePoint" />
            <mxPoint x="-1201" y="-792.9629439011837" as="targetPoint" />
            <Array as="points">
              <mxPoint x="-1147" y="-752.1471950591869" />
            </Array>
          </mxGeometry>
        </mxCell>
        <mxCell id="lZdwYr-LXM3OhQDUA7XR-16" value="" style="endArrow=classic;html=1;rounded=0;fontSize=12;startSize=8;endSize=8;curved=1;exitX=0.5;exitY=1;exitDx=0;exitDy=0;entryX=0;entryY=0.5;entryDx=0;entryDy=0;dashed=1;strokeWidth=2;strokeColor=#CC0000;endFill=1;startArrow=none;startFill=0;dashPattern=5 2 2 2;" parent="1" source="1oUjKqBKF74gJ-cnWfdO-5" target="lZdwYr-LXM3OhQDUA7XR-3" edge="1">
          <mxGeometry width="50" height="50" relative="1" as="geometry">
            <mxPoint x="-1149" y="-497.6489963973238" as="sourcePoint" />
            <mxPoint x="-1215" y="-672.9166237776634" as="targetPoint" />
            <Array as="points">
              <mxPoint x="-1121" y="-704.9289758106022" />
            </Array>
          </mxGeometry>
        </mxCell>
        <mxCell id="lZdwYr-LXM3OhQDUA7XR-17" value="" style="endArrow=classic;html=1;rounded=0;fontSize=12;startSize=8;endSize=8;curved=1;exitX=0.5;exitY=1;exitDx=0;exitDy=0;entryX=0;entryY=0.5;entryDx=0;entryDy=0;dashed=1;strokeWidth=2;strokeColor=#CC0000;endFill=1;startArrow=none;startFill=0;dashPattern=5 2 2 2;" parent="1" source="1oUjKqBKF74gJ-cnWfdO-5" target="lZdwYr-LXM3OhQDUA7XR-4" edge="1">
          <mxGeometry width="50" height="50" relative="1" as="geometry">
            <mxPoint x="-1162" y="-841.7817807514153" as="sourcePoint" />
            <mxPoint x="-942" y="-691.3237261966032" as="targetPoint" />
            <Array as="points">
              <mxPoint x="-1131" y="-680.9197117858981" />
            </Array>
          </mxGeometry>
        </mxCell>
        <mxCell id="lZdwYr-LXM3OhQDUA7XR-18" value="" style="endArrow=classic;html=1;rounded=0;fontSize=12;startSize=8;endSize=8;curved=1;exitX=0.5;exitY=1;exitDx=0;exitDy=0;dashed=1;strokeWidth=2;strokeColor=#CC0000;endFill=1;startArrow=none;startFill=0;entryX=0;entryY=0.5;entryDx=0;entryDy=0;dashPattern=5 2 2 2;" parent="1" source="1oUjKqBKF74gJ-cnWfdO-5" target="lZdwYr-LXM3OhQDUA7XR-5" edge="1">
          <mxGeometry width="50" height="50" relative="1" as="geometry">
            <mxPoint x="-1152" y="-833.7786927431806" as="sourcePoint" />
            <mxPoint x="-961" y="-592.8857436953165" as="targetPoint" />
            <Array as="points">
              <mxPoint x="-1151" y="-656.9104477611941" />
            </Array>
          </mxGeometry>
        </mxCell>
        <mxCell id="lZdwYr-LXM3OhQDUA7XR-19" value="" style="endArrow=classic;html=1;rounded=0;fontSize=12;startSize=8;endSize=8;curved=1;exitX=0.5;exitY=1;exitDx=0;exitDy=0;entryX=0;entryY=0.5;entryDx=0;entryDy=0;dashed=1;strokeWidth=2;strokeColor=#CC0000;endFill=1;startArrow=none;startFill=0;dashPattern=5 2 2 2;" parent="1" source="1oUjKqBKF74gJ-cnWfdO-5" target="lZdwYr-LXM3OhQDUA7XR-6" edge="1">
          <mxGeometry width="50" height="50" relative="1" as="geometry">
            <mxPoint x="-1142" y="-825.775604734946" as="sourcePoint" />
            <mxPoint x="-922" y="-675.3175501801338" as="targetPoint" />
            <Array as="points">
              <mxPoint x="-1161" y="-624.8980957282554" />
            </Array>
          </mxGeometry>
        </mxCell>
        <mxCell id="lZdwYr-LXM3OhQDUA7XR-20" value="" style="endArrow=classic;html=1;rounded=0;fontSize=12;startSize=8;endSize=8;curved=1;exitX=0.5;exitY=1;exitDx=0;exitDy=0;entryX=0;entryY=0.5;entryDx=0;entryDy=0;dashed=1;strokeWidth=2;strokeColor=#CC0000;endFill=1;startArrow=none;startFill=0;dashPattern=5 2 2 2;" parent="1" source="1oUjKqBKF74gJ-cnWfdO-5" target="lZdwYr-LXM3OhQDUA7XR-7" edge="1">
          <mxGeometry width="50" height="50" relative="1" as="geometry">
            <mxPoint x="-1132" y="-817.7725167267113" as="sourcePoint" />
            <mxPoint x="-912" y="-667.3144621718991" as="targetPoint" />
            <Array as="points">
              <mxPoint x="-1181" y="-592.8857436953165" />
            </Array>
          </mxGeometry>
        </mxCell>
        <mxCell id="lZdwYr-LXM3OhQDUA7XR-21" value="" style="endArrow=classic;html=1;rounded=0;fontSize=12;startSize=8;endSize=8;curved=1;exitX=0.5;exitY=1;exitDx=0;exitDy=0;entryX=0;entryY=0.5;entryDx=0;entryDy=0;dashed=1;strokeWidth=2;strokeColor=#CC0000;endFill=1;startArrow=none;startFill=0;dashPattern=5 2 2 2;" parent="1" source="1oUjKqBKF74gJ-cnWfdO-5" target="lZdwYr-LXM3OhQDUA7XR-8" edge="1">
          <mxGeometry width="50" height="50" relative="1" as="geometry">
            <mxPoint x="-1122" y="-809.7694287184765" as="sourcePoint" />
            <mxPoint x="-902" y="-659.3113741636645" as="targetPoint" />
            <Array as="points">
              <mxPoint x="-1201" y="-592.8857436953165" />
            </Array>
          </mxGeometry>
        </mxCell>
        <mxCell id="lZdwYr-LXM3OhQDUA7XR-22" value="" style="ellipse;whiteSpace=wrap;html=1;aspect=fixed;fontSize=16;fillColor=#cc0000;strokeColor=none;" parent="1" vertex="1">
          <mxGeometry x="-1071" y="-253" width="10" height="10" as="geometry" />
        </mxCell>
        <mxCell id="lZdwYr-LXM3OhQDUA7XR-23" value="" style="endArrow=classic;html=1;rounded=0;fontSize=12;startSize=8;endSize=8;curved=1;exitX=0.5;exitY=0;exitDx=0;exitDy=0;entryX=0.5;entryY=1;entryDx=0;entryDy=0;dashed=1;strokeWidth=2;strokeColor=#CC0000;endFill=1;startArrow=none;startFill=0;dashPattern=5 2 2 2;" parent="1" source="1oUjKqBKF74gJ-cnWfdO-7" target="lZdwYr-LXM3OhQDUA7XR-22" edge="1">
          <mxGeometry width="50" height="50" relative="1" as="geometry">
            <mxPoint x="-871" y="-123.10447761194041" as="sourcePoint" />
            <mxPoint x="-1053" y="-123.10447761194041" as="targetPoint" />
            <Array as="points">
              <mxPoint x="-1130" y="-220" />
            </Array>
          </mxGeometry>
        </mxCell>
        <mxCell id="lZdwYr-LXM3OhQDUA7XR-24" value="" style="endArrow=classic;html=1;rounded=0;fontSize=12;startSize=8;endSize=8;curved=1;exitX=0.5;exitY=1;exitDx=0;exitDy=0;dashed=1;strokeWidth=2;strokeColor=#CC0000;endFill=1;startArrow=none;startFill=0;dashPattern=5 2 2 2;entryX=0.5;entryY=0;entryDx=0;entryDy=0;" parent="1" source="1oUjKqBKF74gJ-cnWfdO-5" target="lZdwYr-LXM3OhQDUA7XR-22" edge="1">
          <mxGeometry width="50" height="50" relative="1" as="geometry">
            <mxPoint x="-861" y="-115.10138960370568" as="sourcePoint" />
            <mxPoint x="-1060" y="-307" as="targetPoint" />
            <Array as="points">
              <mxPoint x="-1210" y="-560" />
            </Array>
          </mxGeometry>
        </mxCell>
        <mxCell id="lZdwYr-LXM3OhQDUA7XR-25" value="" style="endArrow=classic;html=1;rounded=0;fontSize=12;startSize=8;endSize=8;curved=1;exitX=1;exitY=0.5;exitDx=0;exitDy=0;entryX=0;entryY=0.5;entryDx=0;entryDy=0;dashed=1;strokeWidth=2;strokeColor=#CC0000;endFill=1;startArrow=none;startFill=0;dashPattern=5 2 2 2;" parent="1" source="lZdwYr-LXM3OhQDUA7XR-22" target="lZdwYr-LXM3OhQDUA7XR-10" edge="1">
          <mxGeometry width="50" height="50" relative="1" as="geometry">
            <mxPoint x="-929" y="-307.57565620175" as="sourcePoint" />
            <mxPoint x="-1111" y="-307.57565620175" as="targetPoint" />
          </mxGeometry>
        </mxCell>
        <mxCell id="lZdwYr-LXM3OhQDUA7XR-26" value="" style="endArrow=classic;html=1;rounded=0;fontSize=12;startSize=8;endSize=8;curved=1;exitX=1;exitY=0.5;exitDx=0;exitDy=0;dashed=1;strokeWidth=2;strokeColor=#CC0000;endFill=1;startArrow=none;startFill=0;entryX=0;entryY=0.5;entryDx=0;entryDy=0;dashPattern=5 2 2 2;" parent="1" source="lZdwYr-LXM3OhQDUA7XR-22" target="lZdwYr-LXM3OhQDUA7XR-9" edge="1">
          <mxGeometry width="50" height="50" relative="1" as="geometry">
            <mxPoint x="-1142" y="-299.1724137931036" as="sourcePoint" />
            <mxPoint x="-901" y="-360.79619145651066" as="targetPoint" />
            <Array as="points">
              <mxPoint x="-970" y="-300" />
            </Array>
          </mxGeometry>
        </mxCell>
        <mxCell id="lZdwYr-LXM3OhQDUA7XR-27" value="" style="endArrow=classic;html=1;rounded=0;fontSize=12;startSize=8;endSize=8;curved=1;dashed=1;strokeWidth=2;strokeColor=#CC0000;endFill=1;startArrow=none;startFill=0;entryX=0;entryY=0.5;entryDx=0;entryDy=0;exitX=1;exitY=0.5;exitDx=0;exitDy=0;dashPattern=5 2 2 2;" parent="1" source="lZdwYr-LXM3OhQDUA7XR-22" target="lZdwYr-LXM3OhQDUA7XR-11" edge="1">
          <mxGeometry width="50" height="50" relative="1" as="geometry">
            <mxPoint x="-1141" y="-280.76531137416373" as="sourcePoint" />
            <mxPoint x="-921" y="-232.7467833247556" as="targetPoint" />
            <Array as="points">
              <mxPoint x="-980" y="-200" />
            </Array>
          </mxGeometry>
        </mxCell>
        <UserObject label="&lt;i&gt;&lt;font color=&quot;#000000&quot;&gt;RenderMethod&lt;/font&gt;&lt;/i&gt;" link="https://www.w3.org/2018/credentials#RenderMethod" id="lZdwYr-LXM3OhQDUA7XR-28">
          <mxCell style="ellipse;whiteSpace=wrap;html=1;fontSize=16;fillColor=none;strokeWidth=2;strokeColor=#336600;dashed=1;dashPattern=1 2;" parent="1" vertex="1">
            <mxGeometry x="-591" y="-433.84791559444164" width="218" height="39.215131240349976" as="geometry" />
          </mxCell>
        </UserObject>
        <UserObject label="&lt;i&gt;&lt;font color=&quot;#000000&quot;&gt;CredentialEvidence&lt;/font&gt;&lt;/i&gt;" link="https://www.w3.org/2018/credentials#CredentialEvidence" id="lZdwYr-LXM3OhQDUA7XR-29">
          <mxCell style="ellipse;whiteSpace=wrap;html=1;fontSize=16;fillColor=none;strokeWidth=2;strokeColor=#336600;dashed=1;dashPattern=1 2;" parent="1" vertex="1">
            <mxGeometry x="-591" y="-546.8911477097273" width="218" height="39.215131240349976" as="geometry" />
          </mxCell>
        </UserObject>
        <UserObject label="&lt;i&gt;&lt;font color=&quot;#000000&quot;&gt;RefreshService&lt;/font&gt;&lt;/i&gt;" link="https://www.w3.org/2018/credentials#RefreshService" id="lZdwYr-LXM3OhQDUA7XR-30">
          <mxCell style="ellipse;whiteSpace=wrap;html=1;fontSize=16;fillColor=none;strokeWidth=2;strokeColor=#336600;dashed=1;dashPattern=1 2;" parent="1" vertex="1">
            <mxGeometry x="-591" y="-490.86953165208445" width="218" height="39.215131240349976" as="geometry" />
          </mxCell>
        </UserObject>
        <UserObject label="&lt;i&gt;&lt;font color=&quot;#000000&quot;&gt;ConfidenceMethod&lt;/font&gt;&lt;/i&gt;" link="https://www.w3.org/2018/credentials#ConfidenceMethod" id="lZdwYr-LXM3OhQDUA7XR-31">
          <mxCell style="ellipse;whiteSpace=wrap;html=1;fontSize=16;fillColor=none;strokeWidth=2;strokeColor=#336600;dashed=1;dashPattern=1 2;" parent="1" vertex="1">
            <mxGeometry x="-591" y="-377.8262995367988" width="218" height="39.215131240349976" as="geometry" />
          </mxCell>
        </UserObject>
        <UserObject label="&lt;i&gt;&lt;font color=&quot;#000000&quot;&gt;TermsOfUse&lt;/font&gt;&lt;/i&gt;" link="https://www.w3.org/2018/credentials#TermsOfUse" id="lZdwYr-LXM3OhQDUA7XR-32">
          <mxCell style="ellipse;whiteSpace=wrap;html=1;fontSize=16;fillColor=none;strokeWidth=2;strokeColor=#336600;dashed=1;dashPattern=1 2;" parent="1" vertex="1">
            <mxGeometry x="-591" y="-321.80468347915604" width="218" height="39.215131240349976" as="geometry" />
          </mxCell>
        </UserObject>
        <UserObject label="&lt;i&gt;&lt;font color=&quot;#000000&quot;&gt;CredentialSchema&lt;/font&gt;&lt;/i&gt;" link="https://www.w3.org/2018/credentials#CredentialSchema" id="lZdwYr-LXM3OhQDUA7XR-33">
          <mxCell style="ellipse;whiteSpace=wrap;html=1;fontSize=16;fillColor=none;strokeWidth=2;strokeColor=#336600;" parent="1" vertex="1">
            <mxGeometry x="-591" y="-830.9776119402985" width="218" height="39.215131240349976" as="geometry" />
          </mxCell>
        </UserObject>
        <UserObject label="&lt;i&gt;&lt;font color=&quot;#000000&quot;&gt;CredentialStatus&lt;/font&gt;&lt;/i&gt;" link="https://www.w3.org/2018/credentials#CredentialStatus" id="lZdwYr-LXM3OhQDUA7XR-34">
          <mxCell style="ellipse;whiteSpace=wrap;html=1;fontSize=16;fillColor=none;strokeWidth=2;strokeColor=#336600;" parent="1" vertex="1">
            <mxGeometry x="-591" y="-774.9559958826557" width="218" height="39.215131240349976" as="geometry" />
          </mxCell>
        </UserObject>
        <mxCell id="lZdwYr-LXM3OhQDUA7XR-35" value="" style="endArrow=classic;html=1;rounded=0;fontSize=12;startSize=8;endSize=8;curved=1;entryX=0;entryY=0.5;entryDx=0;entryDy=0;exitX=1;exitY=0.5;exitDx=0;exitDy=0;strokeColor=#000099;dashed=1;strokeWidth=2;" parent="1" source="lZdwYr-LXM3OhQDUA7XR-1" target="lZdwYr-LXM3OhQDUA7XR-33" edge="1">
          <mxGeometry width="50" height="50" relative="1" as="geometry">
            <mxPoint x="-621" y="-604.0900669068451" as="sourcePoint" />
            <mxPoint x="-621" y="-712.9320638188369" as="targetPoint" />
          </mxGeometry>
        </mxCell>
        <mxCell id="lZdwYr-LXM3OhQDUA7XR-36" value="" style="endArrow=classic;html=1;rounded=0;fontSize=12;startSize=8;endSize=8;curved=1;strokeColor=#000099;dashed=1;strokeWidth=2;exitX=1;exitY=0.5;exitDx=0;exitDy=0;entryX=0;entryY=0.5;entryDx=0;entryDy=0;" parent="1" source="lZdwYr-LXM3OhQDUA7XR-2" target="lZdwYr-LXM3OhQDUA7XR-34" edge="1">
          <mxGeometry width="50" height="50" relative="1" as="geometry">
            <mxPoint x="-681" y="-736.9413278435409" as="sourcePoint" />
            <mxPoint x="-601" y="-720.9351518270715" as="targetPoint" />
          </mxGeometry>
        </mxCell>
        <mxCell id="lZdwYr-LXM3OhQDUA7XR-37" value="" style="endArrow=classic;html=1;rounded=0;fontSize=12;startSize=8;endSize=8;curved=1;entryX=0;entryY=0.5;entryDx=0;entryDy=0;strokeColor=#000099;dashed=1;strokeWidth=2;exitX=1;exitY=0.5;exitDx=0;exitDy=0;" parent="1" source="lZdwYr-LXM3OhQDUA7XR-5" target="lZdwYr-LXM3OhQDUA7XR-29" edge="1">
          <mxGeometry width="50" height="50" relative="1" as="geometry">
            <mxPoint x="-701" y="-522.8826556870819" as="sourcePoint" />
            <mxPoint x="-542" y="-568.5002573340196" as="targetPoint" />
          </mxGeometry>
        </mxCell>
        <mxCell id="lZdwYr-LXM3OhQDUA7XR-38" value="" style="endArrow=classic;html=1;rounded=0;fontSize=12;startSize=8;endSize=8;curved=1;entryX=0;entryY=0.5;entryDx=0;entryDy=0;exitX=1;exitY=0.5;exitDx=0;exitDy=0;strokeColor=#000099;dashed=1;strokeWidth=2;" parent="1" source="lZdwYr-LXM3OhQDUA7XR-6" target="lZdwYr-LXM3OhQDUA7XR-30" edge="1">
          <mxGeometry width="50" height="50" relative="1" as="geometry">
            <mxPoint x="-671" y="-610.9166237776634" as="sourcePoint" />
            <mxPoint x="-552" y="-610.9166237776634" as="targetPoint" />
          </mxGeometry>
        </mxCell>
        <mxCell id="lZdwYr-LXM3OhQDUA7XR-39" value="" style="endArrow=classic;html=1;rounded=0;fontSize=12;startSize=8;endSize=8;curved=1;entryX=0;entryY=0.5;entryDx=0;entryDy=0;exitX=1;exitY=0.5;exitDx=0;exitDy=0;strokeColor=#000099;dashed=1;strokeWidth=2;" parent="1" source="lZdwYr-LXM3OhQDUA7XR-7" target="lZdwYr-LXM3OhQDUA7XR-28" edge="1">
          <mxGeometry width="50" height="50" relative="1" as="geometry">
            <mxPoint x="-561" y="-611.7169325784869" as="sourcePoint" />
            <mxPoint x="-442" y="-611.7169325784869" as="targetPoint" />
          </mxGeometry>
        </mxCell>
        <mxCell id="lZdwYr-LXM3OhQDUA7XR-40" value="" style="endArrow=classic;html=1;rounded=0;fontSize=12;startSize=8;endSize=8;curved=1;entryX=0;entryY=0.5;entryDx=0;entryDy=0;exitX=1;exitY=0.5;exitDx=0;exitDy=0;strokeColor=#000099;dashed=1;strokeWidth=2;" parent="1" source="lZdwYr-LXM3OhQDUA7XR-8" target="lZdwYr-LXM3OhQDUA7XR-31" edge="1">
          <mxGeometry width="50" height="50" relative="1" as="geometry">
            <mxPoint x="-671" y="-322.80545548121466" as="sourcePoint" />
            <mxPoint x="-552" y="-322.80545548121466" as="targetPoint" />
          </mxGeometry>
        </mxCell>
        <mxCell id="lZdwYr-LXM3OhQDUA7XR-41" value="" style="endArrow=classic;html=1;rounded=0;fontSize=12;startSize=8;endSize=8;curved=1;entryX=0;entryY=0.5;entryDx=0;entryDy=0;exitX=1;exitY=0.5;exitDx=0;exitDy=0;strokeColor=#000099;dashed=1;strokeWidth=2;" parent="1" source="lZdwYr-LXM3OhQDUA7XR-9" target="lZdwYr-LXM3OhQDUA7XR-32" edge="1">
          <mxGeometry width="50" height="50" relative="1" as="geometry">
            <mxPoint x="-691" y="-274.7869274318065" as="sourcePoint" />
            <mxPoint x="-572" y="-274.7869274318065" as="targetPoint" />
          </mxGeometry>
        </mxCell>
        <UserObject label="&lt;i&gt;&lt;font color=&quot;#000000&quot;&gt;JsonSchema&lt;/font&gt;&lt;/i&gt;" link="https://www.w3.org/2018/credentials#JsonSchema" id="lZdwYr-LXM3OhQDUA7XR-42">
          <mxCell style="ellipse;whiteSpace=wrap;html=1;fontSize=16;fillColor=none;strokeWidth=2;strokeColor=#336600;" parent="1" vertex="1">
            <mxGeometry x="-231" y="-752.1471950591869" width="218" height="39.215131240349976" as="geometry" />
          </mxCell>
        </UserObject>
        <mxCell id="lZdwYr-LXM3OhQDUA7XR-43" value="" style="endArrow=classic;html=1;rounded=0;fontSize=12;startSize=8;endSize=8;curved=1;exitX=0.5;exitY=0;exitDx=0;exitDy=0;entryX=1;entryY=0.5;entryDx=0;entryDy=0;strokeWidth=2;" parent="1" source="lZdwYr-LXM3OhQDUA7XR-42" target="lZdwYr-LXM3OhQDUA7XR-33" edge="1">
          <mxGeometry width="50" height="50" relative="1" as="geometry">
            <mxPoint x="-241" y="-484.44390118373656" as="sourcePoint" />
            <mxPoint x="-70" y="-584.4825012866701" as="targetPoint" />
            <Array as="points">
              <mxPoint x="-211" y="-816.9722079258878" />
            </Array>
          </mxGeometry>
        </mxCell>
        <mxCell id="usrDyYZYH79wCYu34c_K-6" value="" style="group" parent="1" vertex="1" connectable="0">
          <mxGeometry x="-1598" y="-62" width="1621" height="54.5" as="geometry" />
        </mxCell>
        <mxCell id="lZdwYr-LXM3OhQDUA7XR-45" value="" style="rounded=0;whiteSpace=wrap;html=1;fillColor=none;dashed=1;" parent="usrDyYZYH79wCYu34c_K-6" vertex="1">
          <mxGeometry width="1595" height="54.5" as="geometry" />
        </mxCell>
        <mxCell id="usrDyYZYH79wCYu34c_K-5" value="" style="group" parent="usrDyYZYH79wCYu34c_K-6" vertex="1" connectable="0">
          <mxGeometry x="7" y="2.5" width="1614" height="49.5" as="geometry" />
        </mxCell>
        <mxCell id="usrDyYZYH79wCYu34c_K-1" value="" style="group" parent="usrDyYZYH79wCYu34c_K-5" vertex="1" connectable="0">
          <mxGeometry x="718" y="4.75" width="163.39999999999998" height="40" as="geometry" />
        </mxCell>
        <UserObject label="" id="usrDyYZYH79wCYu34c_K-2">
          <mxCell style="shape=hexagon;perimeter=hexagonPerimeter2;whiteSpace=wrap;html=1;fixedSize=1;fontSize=16;fillColor=none;strokeWidth=2;" parent="usrDyYZYH79wCYu34c_K-1" vertex="1">
            <mxGeometry x="75" y="11.5" width="88.4" height="17" as="geometry" />
          </mxCell>
        </UserObject>
        <mxCell id="usrDyYZYH79wCYu34c_K-3" value="&lt;span style=&quot;color: rgb(0, 0, 0); font-family: Helvetica; font-size: 12px; font-style: normal; font-variant-ligatures: normal; font-variant-caps: normal; font-weight: 400; letter-spacing: normal; orphans: 2; text-align: center; text-indent: 0px; text-transform: none; widows: 2; word-spacing: 0px; -webkit-text-stroke-width: 0px; background-color: rgb(251, 251, 251); text-decoration-thickness: initial; text-decoration-style: initial; text-decoration-color: initial; float: none; display: inline !important;&quot;&gt;Datatype&lt;/span&gt;" style="text;whiteSpace=wrap;html=1;fontSize=16;" parent="usrDyYZYH79wCYu34c_K-1" vertex="1">
          <mxGeometry x="13" width="90" height="40" as="geometry" />
        </mxCell>
        <mxCell id="OI71fulDIgHqbVsoXd_f-4" value="" style="group" parent="usrDyYZYH79wCYu34c_K-5" vertex="1" connectable="0">
          <mxGeometry x="1424" y="4.75" width="190" height="40" as="geometry" />
        </mxCell>
        <mxCell id="OI71fulDIgHqbVsoXd_f-1" style="edgeStyle=none;curved=1;rounded=0;orthogonalLoop=1;jettySize=auto;html=1;fontSize=12;startSize=8;endSize=8;dashed=1;dashPattern=1 4;strokeWidth=2;endArrow=classic;endFill=0;" parent="OI71fulDIgHqbVsoXd_f-4" edge="1">
          <mxGeometry relative="1" as="geometry">
            <mxPoint x="84" y="26.5" as="sourcePoint" />
            <mxPoint x="157" y="26.72" as="targetPoint" />
          </mxGeometry>
        </mxCell>
        <mxCell id="OI71fulDIgHqbVsoXd_f-3" value="&lt;span style=&quot;color: rgb(0, 0, 0); font-family: Helvetica; font-size: 12px; font-style: normal; font-variant-ligatures: normal; font-variant-caps: normal; font-weight: 400; letter-spacing: normal; orphans: 2; text-indent: 0px; text-transform: none; widows: 2; word-spacing: 0px; -webkit-text-stroke-width: 0px; background-color: rgb(251, 251, 251); text-decoration-thickness: initial; text-decoration-style: initial; text-decoration-color: initial; float: none; display: inline !important;&quot;&gt;Graph containment&lt;/span&gt;" style="text;whiteSpace=wrap;html=1;fontSize=16;align=center;" parent="OI71fulDIgHqbVsoXd_f-4" vertex="1">
          <mxGeometry width="70" height="40" as="geometry" />
        </mxCell>
        <mxCell id="lZdwYr-LXM3OhQDUA7XR-50" value="" style="group" parent="usrDyYZYH79wCYu34c_K-5" vertex="1" connectable="0">
          <mxGeometry x="175" y="6.1875" width="170" height="37.125" as="geometry" />
        </mxCell>
        <mxCell id="lZdwYr-LXM3OhQDUA7XR-51" value="" style="rounded=1;whiteSpace=wrap;html=1;fillColor=none;strokeColor=#330000;strokeWidth=2;" parent="lZdwYr-LXM3OhQDUA7XR-50" vertex="1">
          <mxGeometry x="83" y="4.95" width="80" height="23.685750000000002" as="geometry" />
        </mxCell>
        <mxCell id="lZdwYr-LXM3OhQDUA7XR-52" value="Property" style="text;html=1;align=center;verticalAlign=middle;resizable=0;points=[];autosize=1;strokeColor=none;fillColor=none;" parent="lZdwYr-LXM3OhQDUA7XR-50" vertex="1">
          <mxGeometry width="70" height="30" as="geometry" />
        </mxCell>
        <mxCell id="lZdwYr-LXM3OhQDUA7XR-56" value="" style="group" parent="usrDyYZYH79wCYu34c_K-5" vertex="1" connectable="0">
          <mxGeometry x="894" y="6.1875" width="170" height="37.125" as="geometry" />
        </mxCell>
        <mxCell id="lZdwYr-LXM3OhQDUA7XR-57" value="" style="endArrow=classic;html=1;rounded=0;endFill=1;strokeWidth=2;" parent="lZdwYr-LXM3OhQDUA7XR-56" edge="1">
          <mxGeometry width="50" height="50" relative="1" as="geometry">
            <mxPoint x="87" y="17.94375" as="sourcePoint" />
            <mxPoint x="167" y="18.5625" as="targetPoint" />
          </mxGeometry>
        </mxCell>
        <mxCell id="lZdwYr-LXM3OhQDUA7XR-58" value="Superclass" style="text;html=1;align=center;verticalAlign=middle;resizable=0;points=[];autosize=1;strokeColor=none;fillColor=none;" parent="lZdwYr-LXM3OhQDUA7XR-56" vertex="1">
          <mxGeometry x="-5" width="80" height="30" as="geometry" />
        </mxCell>
        <mxCell id="lZdwYr-LXM3OhQDUA7XR-59" value="" style="group" parent="usrDyYZYH79wCYu34c_K-5" vertex="1" connectable="0">
          <mxGeometry x="1091" y="6.1875" width="136" height="37.125" as="geometry" />
        </mxCell>
        <mxCell id="lZdwYr-LXM3OhQDUA7XR-60" style="edgeStyle=orthogonalEdgeStyle;rounded=0;orthogonalLoop=1;jettySize=auto;html=1;startArrow=none;startFill=0;endArrow=classic;endFill=1;strokeColor=#FF3333;dashed=1;exitX=1;exitY=0.5;exitDx=0;exitDy=0;strokeWidth=2;dashPattern=5 2 2 2;" parent="lZdwYr-LXM3OhQDUA7XR-59" edge="1">
          <mxGeometry relative="1" as="geometry">
            <mxPoint x="74" y="18.5625" as="sourcePoint" />
            <mxPoint x="154" y="18.5625" as="targetPoint" />
            <Array as="points">
              <mxPoint x="130" y="18.5625" />
              <mxPoint x="130" y="18.5625" />
            </Array>
          </mxGeometry>
        </mxCell>
        <mxCell id="lZdwYr-LXM3OhQDUA7XR-61" value="Domain&lt;br&gt;of" style="text;html=1;align=center;verticalAlign=middle;resizable=0;points=[];autosize=1;strokeColor=none;fillColor=none;" parent="lZdwYr-LXM3OhQDUA7XR-59" vertex="1">
          <mxGeometry y="-5" width="60" height="40" as="geometry" />
        </mxCell>
        <mxCell id="lZdwYr-LXM3OhQDUA7XR-62" value="" style="group" parent="usrDyYZYH79wCYu34c_K-5" vertex="1" connectable="0">
          <mxGeometry x="1259" y="6.1875" width="160" height="37.125" as="geometry" />
        </mxCell>
        <mxCell id="lZdwYr-LXM3OhQDUA7XR-63" style="edgeStyle=orthogonalEdgeStyle;rounded=0;orthogonalLoop=1;jettySize=auto;html=1;dashed=1;strokeColor=#0000CC;entryX=0;entryY=0.5;entryDx=0;entryDy=0;strokeWidth=2;" parent="lZdwYr-LXM3OhQDUA7XR-62" edge="1">
          <mxGeometry relative="1" as="geometry">
            <mxPoint x="67" y="18.5625" as="sourcePoint" />
            <mxPoint x="147" y="18.5625" as="targetPoint" />
          </mxGeometry>
        </mxCell>
        <mxCell id="lZdwYr-LXM3OhQDUA7XR-64" value="Range" style="text;html=1;align=center;verticalAlign=middle;resizable=0;points=[];autosize=1;strokeColor=none;fillColor=none;" parent="lZdwYr-LXM3OhQDUA7XR-62" vertex="1">
          <mxGeometry width="60" height="30" as="geometry" />
        </mxCell>
        <mxCell id="lZdwYr-LXM3OhQDUA7XR-65" value="" style="group" parent="usrDyYZYH79wCYu34c_K-5" vertex="1" connectable="0">
          <mxGeometry x="360" y="3.09375" width="160" height="43.3125" as="geometry" />
        </mxCell>
        <mxCell id="lZdwYr-LXM3OhQDUA7XR-66" value="" style="ellipse;whiteSpace=wrap;html=1;fillColor=none;strokeColor=#82b366;strokeWidth=2;dashed=1;dashPattern=1 2;" parent="lZdwYr-LXM3OhQDUA7XR-65" vertex="1">
          <mxGeometry x="65" y="4.95" width="100" height="28.004625" as="geometry" />
        </mxCell>
        <mxCell id="lZdwYr-LXM3OhQDUA7XR-67" value="Reserved&lt;br&gt;class" style="text;html=1;align=center;verticalAlign=middle;resizable=0;points=[];autosize=1;strokeColor=none;fillColor=none;" parent="lZdwYr-LXM3OhQDUA7XR-65" vertex="1">
          <mxGeometry x="-10" y="1.8125" width="70" height="40" as="geometry" />
        </mxCell>
        <mxCell id="lZdwYr-LXM3OhQDUA7XR-71" value="" style="group" parent="usrDyYZYH79wCYu34c_K-5" vertex="1" connectable="0">
          <mxGeometry x="532" width="176" height="49.5" as="geometry" />
        </mxCell>
        <mxCell id="lZdwYr-LXM3OhQDUA7XR-55" value="Reserved&lt;br&gt;property" style="text;html=1;align=center;verticalAlign=middle;resizable=0;points=[];autosize=1;strokeColor=none;fillColor=none;" parent="lZdwYr-LXM3OhQDUA7XR-71" vertex="1">
          <mxGeometry y="7" width="70" height="40" as="geometry" />
        </mxCell>
        <UserObject label="" link="https://www.w3.org/2018/credentials#evidence" id="lZdwYr-LXM3OhQDUA7XR-70">
          <mxCell style="rounded=1;whiteSpace=wrap;html=1;fontSize=16;fillColor=none;strokeWidth=2;dashed=1;dashPattern=1 2;" parent="lZdwYr-LXM3OhQDUA7XR-71" vertex="1">
            <mxGeometry x="81.75" y="14.231250000000001" width="91.25" height="24.75" as="geometry" />
          </mxCell>
        </UserObject>
        <mxCell id="lZdwYr-LXM3OhQDUA7XR-48" value="" style="ellipse;whiteSpace=wrap;html=1;fillColor=none;strokeColor=#82b366;strokeWidth=2;" parent="usrDyYZYH79wCYu34c_K-5" vertex="1">
          <mxGeometry x="60" y="11.1375" width="100" height="28.004625" as="geometry" />
        </mxCell>
        <mxCell id="lZdwYr-LXM3OhQDUA7XR-49" value="Class" style="text;html=1;align=center;verticalAlign=middle;resizable=0;points=[];autosize=1;strokeColor=none;fillColor=none;" parent="usrDyYZYH79wCYu34c_K-5" vertex="1">
          <mxGeometry y="6.1875" width="50" height="30" as="geometry" />
        </mxCell>
        <UserObject label="&lt;i&gt;&lt;font color=&quot;#000000&quot;&gt;jsonSchema&lt;/font&gt;&lt;/i&gt;" link="https://www.w3.org/2018/credentials#credentialSubject" id="usrDyYZYH79wCYu34c_K-7">
          <mxCell style="rounded=1;whiteSpace=wrap;html=1;fontSize=16;fillColor=none;strokeWidth=2;" parent="1" vertex="1">
            <mxGeometry x="-207.5" y="-640.002063818837" width="171" height="27.21049922799794" as="geometry" />
          </mxCell>
        </UserObject>
        <mxCell id="usrDyYZYH79wCYu34c_K-8" value="" style="endArrow=classic;html=1;rounded=0;fontSize=12;startSize=8;endSize=8;curved=1;dashed=1;strokeWidth=2;strokeColor=#CC0000;endFill=1;startArrow=none;startFill=0;dashPattern=5 2 2 2;entryX=0.5;entryY=0;entryDx=0;entryDy=0;" parent="1" target="usrDyYZYH79wCYu34c_K-7" edge="1">
          <mxGeometry width="50" height="50" relative="1" as="geometry">
            <mxPoint x="-120" y="-710" as="sourcePoint" />
            <mxPoint x="-90" y="-310" as="targetPoint" />
          </mxGeometry>
        </mxCell>
        <UserObject label="&lt;font color=&quot;#000000&quot;&gt;rdf:JSON&lt;/font&gt;" id="usrDyYZYH79wCYu34c_K-9">
          <mxCell style="shape=hexagon;perimeter=hexagonPerimeter2;whiteSpace=wrap;html=1;fixedSize=1;fontSize=16;fillColor=none;strokeWidth=2;" parent="1" vertex="1">
            <mxGeometry x="-195.99999999999994" y="-545.0000000000001" width="149.3690176322418" height="28.708676470588237" as="geometry" />
          </mxCell>
        </UserObject>
        <mxCell id="usrDyYZYH79wCYu34c_K-10" value="" style="endArrow=classic;html=1;rounded=0;fontSize=12;startSize=8;endSize=8;curved=1;entryX=0.5;entryY=0;entryDx=0;entryDy=0;exitX=0.5;exitY=1;exitDx=0;exitDy=0;strokeColor=#000099;dashed=1;strokeWidth=2;" parent="1" source="usrDyYZYH79wCYu34c_K-7" target="usrDyYZYH79wCYu34c_K-9" edge="1">
          <mxGeometry width="50" height="50" relative="1" as="geometry">
            <mxPoint x="-310" y="-389.8028821410189" as="sourcePoint" />
            <mxPoint x="-191" y="-389.8028821410189" as="targetPoint" />
          </mxGeometry>
        </mxCell>
        <UserObject label="&lt;i&gt;&lt;font color=&quot;#000000&quot;&gt;relatedResource&lt;/font&gt;&lt;/i&gt;" link="https://www.w3.org/2018/credentials#relatedResource" id="NdHKz3nYJsEpI_Vai11b-1">
          <mxCell style="rounded=1;whiteSpace=wrap;html=1;fontSize=16;fillColor=none;strokeWidth=2;" vertex="1" parent="1">
            <mxGeometry x="-881" y="-599" width="171" height="27.21049922799794" as="geometry" />
          </mxCell>
        </UserObject>
        <mxCell id="NdHKz3nYJsEpI_Vai11b-2" value="" style="endArrow=classic;html=1;rounded=0;fontSize=12;startSize=8;endSize=8;curved=1;exitX=0.5;exitY=1;exitDx=0;exitDy=0;entryX=0;entryY=0.5;entryDx=0;entryDy=0;dashed=1;strokeWidth=2;strokeColor=#CC0000;endFill=1;startArrow=none;startFill=0;dashPattern=5 2 2 2;" edge="1" parent="1" source="1oUjKqBKF74gJ-cnWfdO-5" target="NdHKz3nYJsEpI_Vai11b-1">
          <mxGeometry width="50" height="50" relative="1" as="geometry">
            <mxPoint x="-1162" y="-840" as="sourcePoint" />
            <mxPoint x="-871" y="-631" as="targetPoint" />
            <Array as="points">
              <mxPoint x="-1121" y="-670.9197117858981" />
            </Array>
          </mxGeometry>
        </mxCell>
        <UserObject label="&lt;i&gt;&lt;font color=&quot;#000000&quot;&gt;digestSRI&lt;/font&gt;&lt;/i&gt;" link="https://www.w3.org/2018/credentials#digestSRI" id="NdHKz3nYJsEpI_Vai11b-3">
          <mxCell style="rounded=1;whiteSpace=wrap;html=1;fontSize=16;fillColor=none;strokeWidth=2;" vertex="1" parent="1">
            <mxGeometry x="-207.5" y="-429.002063818837" width="171" height="27.21049922799794" as="geometry" />
          </mxCell>
        </UserObject>
        <UserObject label="&lt;font color=&quot;#000000&quot;&gt;sriString&lt;/font&gt;" link="https://w3id.org/security/#sriString" id="NdHKz3nYJsEpI_Vai11b-4">
          <mxCell style="shape=hexagon;perimeter=hexagonPerimeter2;whiteSpace=wrap;html=1;fixedSize=1;fontSize=16;fillColor=none;strokeWidth=2;" vertex="1" parent="1">
            <mxGeometry x="-195.99999999999994" y="-334.0000000000001" width="149.3690176322418" height="28.708676470588237" as="geometry" />
          </mxCell>
        </UserObject>
        <mxCell id="NdHKz3nYJsEpI_Vai11b-5" value="" style="endArrow=classic;html=1;rounded=0;fontSize=12;startSize=8;endSize=8;curved=1;entryX=0.5;entryY=0;entryDx=0;entryDy=0;exitX=0.5;exitY=1;exitDx=0;exitDy=0;strokeColor=#000099;dashed=1;strokeWidth=2;" edge="1" parent="1" source="NdHKz3nYJsEpI_Vai11b-3" target="NdHKz3nYJsEpI_Vai11b-4">
          <mxGeometry width="50" height="50" relative="1" as="geometry">
            <mxPoint x="-310" y="-178.80288214101893" as="sourcePoint" />
            <mxPoint x="-191" y="-178.80288214101893" as="targetPoint" />
          </mxGeometry>
        </mxCell>
      </root>
    </mxGraphModel>
  </diagram>
</mxfile>
